# xmcd
#
# Track frame offsets:
#	150
#	10557
#	39328
#	64292
#	85028
#	111571
#	135982
#	157236
#	171898
#	188444
#	208380
#	234011
#	265005
#	293466
#	309978
#	339019
#
# Disc length: 4667 seconds
#
# Revision: 0
# Processed by: cddbd v1.4PL0 Copyright (c) Steve Scherf et al.
# Submitted via: audiograbber 1.81.03
#
DISCID=c9123910
DTITLE=Various Artist - Blues Matrix
DYEAR=2003
DGENRE=Blues
TTITLE0=Everlast                       - Were All Gonna Die ft Cee Lo  
TTITLE1=Jeff Beck - Brush With The Blues
TTITLE2=Albert Collins - Blue Monday Hangover
TTITLE3=Santana - Sideways
TTITLE4=Jack Falk Project - No Ganja Blues
TTITLE5=Robben Ford - Nothing To Nobody
TTITLE6=Cab Calloway - St. James Infirmary
TTITLE7=Greg Brown - Blues Go Walking
TTITLE8=J J Cale - Hard Times
TTITLE9=James Cotton - Broke and Hungry
TTITLE10=Albert Collins - Mastercharge
TTITLE11=Bloomfield, Kooper, Stills     - Albert's Shuffle              
TTITLE12=Roy Buchanan - Drowning On Dry Land
TTITLE13=James Cotton and David 'Honeyboy' Edwards - Crossroads
TTITLE14=Robert Cray, Albert Collins, Johnny Copeland - Blackjack
TTITLE15=Nina Simonee                   - Backlash Blues                
EXTD=
EXTT0=
EXTT1=
EXTT2=
EXTT3=
EXTT4=
EXTT5=
EXTT6=
EXTT7=
EXTT8=
EXTT9=
EXTT10=
EXTT11=
EXTT12=
EXTT13=
EXTT14=
EXTT15=
PLAYORDER=
